<svg xmlns="http://www.w3.org/2000/svg" viewBox="0 0 18 18" width="18" height="18">
	<style>
		tspan { white-space:pre }
		.shp0 { fill: #95a5a5 } 
	</style>
	<path id="Shape 7" class="shp0" d="M6.38 12.74C9.87 12.71 12.69 9.83 12.66 6.32C12.63 2.81 9.76 -0.03 6.27 0C2.78 0.03 -0.03 2.91 0 6.43C0.03 9.94 2.89 12.77 6.38 12.74ZM6.27 1.47C8.98 1.45 11.2 3.65 11.22 6.37C11.25 9.1 9.06 11.33 6.35 11.36C3.64 11.38 1.42 9.18 1.39 6.46C1.37 3.73 3.56 1.5 6.27 1.47ZM13.04 11.45C13.15 11.51 13.26 11.58 13.36 11.67L17.64 15.91C18.11 16.38 18.12 17.15 17.65 17.63C17.18 18.11 16.42 18.12 15.94 17.65L11.66 13.41C11.56 13.31 11.49 13.21 11.43 13.09C12.06 12.65 12.61 12.09 13.04 11.45ZM2.97 6.06C3.18 6.06 3.35 5.89 3.34 5.68C3.33 4.45 4.32 3.44 5.54 3.43C5.75 3.43 5.91 3.26 5.91 3.05C5.91 2.84 5.74 2.68 5.53 2.68C3.9 2.69 2.58 4.04 2.6 5.69C2.6 5.89 2.77 6.06 2.97 6.06Z" />
</svg>